<mxfile host="app.diagrams.net" agent="Mozilla/5.0 (Macintosh; Intel Mac OS X 10_15_7) AppleWebKit/537.36 (KHTML, like Gecko) Chrome/133.0.0.0 Safari/537.36" version="26.0.11" pages="2">
  <diagram name="第 1 页" id="NV4lC5rSJv6wUXsmLk_9">
    <mxGraphModel dx="1434" dy="685" grid="0" gridSize="10" guides="1" tooltips="1" connect="1" arrows="1" fold="1" page="1" pageScale="1" pageWidth="827" pageHeight="1169" math="0" shadow="0">
      <root>
        <mxCell id="0" />
        <mxCell id="1" parent="0" />
        <mxCell id="nZUFrM6e4kaLMGKB3E_s-9" value="" style="rounded=1;whiteSpace=wrap;html=1;dashed=1;fontStyle=1" parent="1" vertex="1">
          <mxGeometry x="368" y="513" width="237" height="139" as="geometry" />
        </mxCell>
        <mxCell id="QsNpBBdJaqJYQxIO41YF-9" style="edgeStyle=orthogonalEdgeStyle;rounded=0;orthogonalLoop=1;jettySize=auto;html=1;exitX=0.5;exitY=1;exitDx=0;exitDy=0;" parent="1" source="QsNpBBdJaqJYQxIO41YF-1" target="QsNpBBdJaqJYQxIO41YF-8" edge="1">
          <mxGeometry relative="1" as="geometry" />
        </mxCell>
        <mxCell id="QsNpBBdJaqJYQxIO41YF-11" value="低优先级" style="edgeLabel;html=1;align=center;verticalAlign=middle;resizable=0;points=[];" parent="QsNpBBdJaqJYQxIO41YF-9" vertex="1" connectable="0">
          <mxGeometry x="-0.1158" relative="1" as="geometry">
            <mxPoint as="offset" />
          </mxGeometry>
        </mxCell>
        <mxCell id="QsNpBBdJaqJYQxIO41YF-1" value="稿件OCR&lt;br&gt;Dispatcher" style="rounded=0;whiteSpace=wrap;html=1;fillColor=#dae8fc;strokeColor=#6c8ebf;" parent="1" vertex="1">
          <mxGeometry x="160" y="250" width="120" height="60" as="geometry" />
        </mxCell>
        <mxCell id="QsNpBBdJaqJYQxIO41YF-10" style="edgeStyle=orthogonalEdgeStyle;rounded=0;orthogonalLoop=1;jettySize=auto;html=1;exitX=0.5;exitY=1;exitDx=0;exitDy=0;" parent="1" source="QsNpBBdJaqJYQxIO41YF-6" edge="1">
          <mxGeometry relative="1" as="geometry">
            <mxPoint x="320" y="400" as="targetPoint" />
          </mxGeometry>
        </mxCell>
        <mxCell id="QsNpBBdJaqJYQxIO41YF-12" value="高优先级" style="edgeLabel;html=1;align=center;verticalAlign=middle;resizable=0;points=[];" parent="QsNpBBdJaqJYQxIO41YF-10" vertex="1" connectable="0">
          <mxGeometry x="-0.0824" y="1" relative="1" as="geometry">
            <mxPoint as="offset" />
          </mxGeometry>
        </mxCell>
        <mxCell id="QsNpBBdJaqJYQxIO41YF-6" value="直播OCR&lt;br&gt;Dispatcher" style="rounded=0;whiteSpace=wrap;html=1;fillColor=#e1d5e7;strokeColor=#9673a6;" parent="1" vertex="1">
          <mxGeometry x="340" y="250" width="120" height="60" as="geometry" />
        </mxCell>
        <mxCell id="QsNpBBdJaqJYQxIO41YF-8" value="OCR模型" style="rounded=0;whiteSpace=wrap;html=1;fillColor=#d5e8d4;strokeColor=#82b366;" parent="1" vertex="1">
          <mxGeometry x="260" y="400" width="120" height="60" as="geometry" />
        </mxCell>
        <mxCell id="QsNpBBdJaqJYQxIO41YF-17" style="edgeStyle=orthogonalEdgeStyle;rounded=0;orthogonalLoop=1;jettySize=auto;html=1;exitX=0.5;exitY=1;exitDx=0;exitDy=0;" parent="1" source="QsNpBBdJaqJYQxIO41YF-14" target="QsNpBBdJaqJYQxIO41YF-1" edge="1">
          <mxGeometry relative="1" as="geometry" />
        </mxCell>
        <mxCell id="QsNpBBdJaqJYQxIO41YF-14" value="稿件数据流" style="shape=process;whiteSpace=wrap;html=1;backgroundOutline=1;fillColor=#dae8fc;strokeColor=#6c8ebf;" parent="1" vertex="1">
          <mxGeometry x="160" y="140" width="120" height="30" as="geometry" />
        </mxCell>
        <mxCell id="QsNpBBdJaqJYQxIO41YF-16" style="edgeStyle=orthogonalEdgeStyle;rounded=0;orthogonalLoop=1;jettySize=auto;html=1;exitX=0.5;exitY=1;exitDx=0;exitDy=0;entryX=0.5;entryY=0;entryDx=0;entryDy=0;" parent="1" source="QsNpBBdJaqJYQxIO41YF-15" target="QsNpBBdJaqJYQxIO41YF-6" edge="1">
          <mxGeometry relative="1" as="geometry" />
        </mxCell>
        <mxCell id="QsNpBBdJaqJYQxIO41YF-15" value="直播切片数据流" style="shape=process;whiteSpace=wrap;html=1;backgroundOutline=1;fillColor=#e1d5e7;strokeColor=#9673a6;" parent="1" vertex="1">
          <mxGeometry x="340" y="140" width="120" height="30" as="geometry" />
        </mxCell>
        <mxCell id="nZUFrM6e4kaLMGKB3E_s-10" style="edgeStyle=orthogonalEdgeStyle;rounded=0;orthogonalLoop=1;jettySize=auto;html=1;exitX=1;exitY=0.5;exitDx=0;exitDy=0;entryX=0;entryY=0.5;entryDx=0;entryDy=0;fontStyle=1" parent="1" source="nZUFrM6e4kaLMGKB3E_s-1" target="nZUFrM6e4kaLMGKB3E_s-3" edge="1">
          <mxGeometry relative="1" as="geometry" />
        </mxCell>
        <mxCell id="nZUFrM6e4kaLMGKB3E_s-11" style="edgeStyle=orthogonalEdgeStyle;rounded=0;orthogonalLoop=1;jettySize=auto;html=1;exitX=1;exitY=0.5;exitDx=0;exitDy=0;entryX=0;entryY=0.5;entryDx=0;entryDy=0;fontStyle=1" parent="1" source="nZUFrM6e4kaLMGKB3E_s-1" target="nZUFrM6e4kaLMGKB3E_s-4" edge="1">
          <mxGeometry relative="1" as="geometry" />
        </mxCell>
        <mxCell id="nZUFrM6e4kaLMGKB3E_s-1" value="Torch/TF&lt;br&gt;/Paddle" style="rounded=1;whiteSpace=wrap;html=1;fillColor=#f5f5f5;strokeColor=#666666;fontColor=#333333;fontStyle=1" parent="1" vertex="1">
          <mxGeometry x="114" y="581" width="85" height="40" as="geometry" />
        </mxCell>
        <mxCell id="nZUFrM6e4kaLMGKB3E_s-13" style="edgeStyle=orthogonalEdgeStyle;rounded=0;orthogonalLoop=1;jettySize=auto;html=1;exitX=1;exitY=0.5;exitDx=0;exitDy=0;entryX=0;entryY=0.5;entryDx=0;entryDy=0;fontStyle=1" parent="1" source="nZUFrM6e4kaLMGKB3E_s-3" target="nZUFrM6e4kaLMGKB3E_s-6" edge="1">
          <mxGeometry relative="1" as="geometry" />
        </mxCell>
        <mxCell id="nZUFrM6e4kaLMGKB3E_s-3" value="TorchScript IR/Parser" style="rounded=1;whiteSpace=wrap;html=1;fillColor=#60a917;strokeColor=#2D7600;fontColor=#ffffff;fontStyle=1" parent="1" vertex="1">
          <mxGeometry x="245" y="529" width="85" height="40" as="geometry" />
        </mxCell>
        <mxCell id="nZUFrM6e4kaLMGKB3E_s-12" style="edgeStyle=orthogonalEdgeStyle;rounded=0;orthogonalLoop=1;jettySize=auto;html=1;exitX=1;exitY=0.5;exitDx=0;exitDy=0;entryX=0;entryY=0.5;entryDx=0;entryDy=0;fontStyle=1" parent="1" source="nZUFrM6e4kaLMGKB3E_s-4" target="nZUFrM6e4kaLMGKB3E_s-6" edge="1">
          <mxGeometry relative="1" as="geometry" />
        </mxCell>
        <mxCell id="nZUFrM6e4kaLMGKB3E_s-4" value="ONNX IR/Parser" style="rounded=1;whiteSpace=wrap;html=1;fillColor=#1ba1e2;strokeColor=#006EAF;fontColor=#ffffff;fontStyle=1" parent="1" vertex="1">
          <mxGeometry x="245" y="604" width="85" height="40" as="geometry" />
        </mxCell>
        <mxCell id="nZUFrM6e4kaLMGKB3E_s-16" style="edgeStyle=orthogonalEdgeStyle;rounded=0;orthogonalLoop=1;jettySize=auto;html=1;exitX=1;exitY=0.5;exitDx=0;exitDy=0;entryX=0;entryY=0.5;entryDx=0;entryDy=0;fontStyle=1" parent="1" source="nZUFrM6e4kaLMGKB3E_s-6" target="nZUFrM6e4kaLMGKB3E_s-7" edge="1">
          <mxGeometry relative="1" as="geometry" />
        </mxCell>
        <mxCell id="nZUFrM6e4kaLMGKB3E_s-6" value="InferX" style="rounded=1;whiteSpace=wrap;html=1;fillColor=#ffe6cc;strokeColor=#d79b00;fontStyle=1" parent="1" vertex="1">
          <mxGeometry x="382" y="559" width="85" height="40" as="geometry" />
        </mxCell>
        <mxCell id="nZUFrM6e4kaLMGKB3E_s-7" value="Backend&lt;br&gt;TensorRT/&lt;br&gt;ONNXRuntime" style="rounded=1;whiteSpace=wrap;html=1;fillColor=#ffe6cc;strokeColor=#d79b00;fontStyle=1" parent="1" vertex="1">
          <mxGeometry x="502" y="527" width="91" height="44" as="geometry" />
        </mxCell>
        <mxCell id="nZUFrM6e4kaLMGKB3E_s-15" style="edgeStyle=orthogonalEdgeStyle;rounded=0;orthogonalLoop=1;jettySize=auto;html=1;exitX=0.541;exitY=0.05;exitDx=0;exitDy=0;entryX=0.5;entryY=1;entryDx=0;entryDy=0;exitPerimeter=0;fontStyle=1" parent="1" source="nZUFrM6e4kaLMGKB3E_s-8" target="nZUFrM6e4kaLMGKB3E_s-7" edge="1">
          <mxGeometry relative="1" as="geometry" />
        </mxCell>
        <mxCell id="nZUFrM6e4kaLMGKB3E_s-8" value="第三方算子" style="rounded=1;whiteSpace=wrap;html=1;fillColor=#ffe6cc;strokeColor=#d79b00;fontStyle=1" parent="1" vertex="1">
          <mxGeometry x="505" y="595" width="85" height="40" as="geometry" />
        </mxCell>
        <mxCell id="Z4CZ9cn21txVCKvSHwS5-6" style="edgeStyle=orthogonalEdgeStyle;rounded=0;orthogonalLoop=1;jettySize=auto;html=1;exitX=1;exitY=0.5;exitDx=0;exitDy=0;entryX=0;entryY=0.5;entryDx=0;entryDy=0;fontSize=14;" edge="1" parent="1" source="Z4CZ9cn21txVCKvSHwS5-1" target="Z4CZ9cn21txVCKvSHwS5-2">
          <mxGeometry relative="1" as="geometry" />
        </mxCell>
        <mxCell id="Z4CZ9cn21txVCKvSHwS5-1" value="预处理" style="rounded=0;whiteSpace=wrap;html=1;fillColor=#f8cecc;strokeColor=#b85450;fontSize=14;" vertex="1" parent="1">
          <mxGeometry x="202" y="710" width="52" height="37" as="geometry" />
        </mxCell>
        <mxCell id="Z4CZ9cn21txVCKvSHwS5-7" style="edgeStyle=orthogonalEdgeStyle;rounded=0;orthogonalLoop=1;jettySize=auto;html=1;exitX=1;exitY=0.5;exitDx=0;exitDy=0;fontSize=14;" edge="1" parent="1" source="Z4CZ9cn21txVCKvSHwS5-2" target="Z4CZ9cn21txVCKvSHwS5-3">
          <mxGeometry relative="1" as="geometry" />
        </mxCell>
        <mxCell id="Z4CZ9cn21txVCKvSHwS5-2" value="Model1" style="rounded=0;whiteSpace=wrap;html=1;fillColor=#008C00;strokeColor=#3A5431;fontColor=#ffffff;fontSize=14;" vertex="1" parent="1">
          <mxGeometry x="297" y="710" width="52" height="37" as="geometry" />
        </mxCell>
        <mxCell id="Z4CZ9cn21txVCKvSHwS5-8" style="edgeStyle=orthogonalEdgeStyle;rounded=0;orthogonalLoop=1;jettySize=auto;html=1;exitX=1;exitY=0.5;exitDx=0;exitDy=0;entryX=0;entryY=0.5;entryDx=0;entryDy=0;fontSize=14;" edge="1" parent="1" source="Z4CZ9cn21txVCKvSHwS5-3" target="Z4CZ9cn21txVCKvSHwS5-4">
          <mxGeometry relative="1" as="geometry" />
        </mxCell>
        <mxCell id="Z4CZ9cn21txVCKvSHwS5-3" value="Model2" style="rounded=0;whiteSpace=wrap;html=1;fillColor=#008C00;strokeColor=#3A5431;fontColor=#ffffff;fontSize=14;" vertex="1" parent="1">
          <mxGeometry x="385" y="710" width="52" height="37" as="geometry" />
        </mxCell>
        <mxCell id="Z4CZ9cn21txVCKvSHwS5-26" style="edgeStyle=orthogonalEdgeStyle;rounded=0;orthogonalLoop=1;jettySize=auto;html=1;exitX=1;exitY=0.5;exitDx=0;exitDy=0;entryX=0.5;entryY=1;entryDx=0;entryDy=0;fontSize=14;" edge="1" parent="1" source="Z4CZ9cn21txVCKvSHwS5-4" target="Z4CZ9cn21txVCKvSHwS5-25">
          <mxGeometry relative="1" as="geometry" />
        </mxCell>
        <mxCell id="Z4CZ9cn21txVCKvSHwS5-4" value="后处理" style="rounded=0;whiteSpace=wrap;html=1;fillColor=#bac8d3;strokeColor=#23445d;fontSize=14;" vertex="1" parent="1">
          <mxGeometry x="481" y="710" width="52" height="37" as="geometry" />
        </mxCell>
        <mxCell id="Z4CZ9cn21txVCKvSHwS5-9" value="Req1" style="rounded=0;whiteSpace=wrap;html=1;fillColor=#d5e8d4;strokeColor=#82b366;fontSize=14;" vertex="1" parent="1">
          <mxGeometry x="94" y="703" width="52" height="20" as="geometry" />
        </mxCell>
        <mxCell id="Z4CZ9cn21txVCKvSHwS5-10" value="预处理" style="rounded=0;whiteSpace=wrap;html=1;fillColor=#008C00;strokeColor=#3A5431;fontColor=#ffffff;fontSize=14;" vertex="1" parent="1">
          <mxGeometry x="187" y="918" width="52" height="37" as="geometry" />
        </mxCell>
        <mxCell id="Z4CZ9cn21txVCKvSHwS5-13" value="Batch" style="strokeWidth=2;html=1;shape=mxgraph.flowchart.direct_data;whiteSpace=wrap;fontSize=14;" vertex="1" parent="1">
          <mxGeometry x="183" y="897" width="65" height="18" as="geometry" />
        </mxCell>
        <mxCell id="Z4CZ9cn21txVCKvSHwS5-15" value="Model1" style="rounded=0;whiteSpace=wrap;html=1;fillColor=#008C00;strokeColor=#3A5431;fontColor=#ffffff;fontSize=14;" vertex="1" parent="1">
          <mxGeometry x="292" y="918" width="52" height="37" as="geometry" />
        </mxCell>
        <mxCell id="Z4CZ9cn21txVCKvSHwS5-16" value="Batch" style="strokeWidth=2;html=1;shape=mxgraph.flowchart.direct_data;whiteSpace=wrap;fontSize=14;" vertex="1" parent="1">
          <mxGeometry x="288" y="897" width="65" height="18" as="geometry" />
        </mxCell>
        <mxCell id="Z4CZ9cn21txVCKvSHwS5-17" value="Model2" style="rounded=0;whiteSpace=wrap;html=1;fillColor=#008C00;strokeColor=#3A5431;fontColor=#ffffff;fontSize=14;" vertex="1" parent="1">
          <mxGeometry x="402" y="918" width="52" height="37" as="geometry" />
        </mxCell>
        <mxCell id="Z4CZ9cn21txVCKvSHwS5-18" value="Batch" style="strokeWidth=2;html=1;shape=mxgraph.flowchart.direct_data;whiteSpace=wrap;fontSize=14;" vertex="1" parent="1">
          <mxGeometry x="398" y="897" width="65" height="18" as="geometry" />
        </mxCell>
        <mxCell id="Z4CZ9cn21txVCKvSHwS5-33" style="edgeStyle=orthogonalEdgeStyle;rounded=0;orthogonalLoop=1;jettySize=auto;html=1;exitX=1;exitY=0.5;exitDx=0;exitDy=0;fontSize=14;" edge="1" parent="1" source="Z4CZ9cn21txVCKvSHwS5-20" target="Z4CZ9cn21txVCKvSHwS5-23">
          <mxGeometry relative="1" as="geometry">
            <mxPoint x="127" y="954" as="targetPoint" />
            <Array as="points">
              <mxPoint x="587" y="937" />
              <mxPoint x="587" y="995" />
              <mxPoint x="105" y="995" />
            </Array>
          </mxGeometry>
        </mxCell>
        <mxCell id="Z4CZ9cn21txVCKvSHwS5-20" value="后处理" style="rounded=0;whiteSpace=wrap;html=1;fillColor=#bac8d3;strokeColor=#23445d;fontSize=14;" vertex="1" parent="1">
          <mxGeometry x="515" y="918" width="52" height="37" as="geometry" />
        </mxCell>
        <mxCell id="Z4CZ9cn21txVCKvSHwS5-21" value="Batch" style="strokeWidth=2;html=1;shape=mxgraph.flowchart.direct_data;whiteSpace=wrap;fontSize=14;" vertex="1" parent="1">
          <mxGeometry x="511" y="896" width="65" height="19" as="geometry" />
        </mxCell>
        <mxCell id="Z4CZ9cn21txVCKvSHwS5-22" value="Req1" style="rounded=0;whiteSpace=wrap;html=1;fillColor=#d5e8d4;strokeColor=#82b366;fontSize=14;" vertex="1" parent="1">
          <mxGeometry x="89" y="918" width="52" height="21" as="geometry" />
        </mxCell>
        <mxCell id="Z4CZ9cn21txVCKvSHwS5-23" value="Req2" style="rounded=0;whiteSpace=wrap;html=1;fillColor=#d5e8d4;strokeColor=#82b366;fontSize=14;" vertex="1" parent="1">
          <mxGeometry x="89" y="939" width="52" height="21" as="geometry" />
        </mxCell>
        <mxCell id="Z4CZ9cn21txVCKvSHwS5-27" style="edgeStyle=orthogonalEdgeStyle;rounded=0;orthogonalLoop=1;jettySize=auto;html=1;exitX=1;exitY=0.25;exitDx=0;exitDy=0;entryX=0;entryY=0.5;entryDx=0;entryDy=0;fontSize=14;" edge="1" parent="1" source="Z4CZ9cn21txVCKvSHwS5-25" target="Z4CZ9cn21txVCKvSHwS5-1">
          <mxGeometry relative="1" as="geometry" />
        </mxCell>
        <mxCell id="Z4CZ9cn21txVCKvSHwS5-25" value="Req2" style="rounded=0;whiteSpace=wrap;html=1;fillColor=#d5e8d4;strokeColor=#82b366;fontSize=14;" vertex="1" parent="1">
          <mxGeometry x="94" y="723" width="52" height="20" as="geometry" />
        </mxCell>
        <mxCell id="Z4CZ9cn21txVCKvSHwS5-28" style="edgeStyle=orthogonalEdgeStyle;rounded=0;orthogonalLoop=1;jettySize=auto;html=1;exitX=1;exitY=0.5;exitDx=0;exitDy=0;entryX=0;entryY=0.5;entryDx=0;entryDy=0;entryPerimeter=0;fontSize=14;" edge="1" parent="1" source="Z4CZ9cn21txVCKvSHwS5-23" target="Z4CZ9cn21txVCKvSHwS5-13">
          <mxGeometry relative="1" as="geometry" />
        </mxCell>
        <mxCell id="Z4CZ9cn21txVCKvSHwS5-29" style="edgeStyle=orthogonalEdgeStyle;rounded=0;orthogonalLoop=1;jettySize=auto;html=1;exitX=0.5;exitY=1;exitDx=0;exitDy=0;entryX=0;entryY=0.5;entryDx=0;entryDy=0;entryPerimeter=0;fontSize=14;" edge="1" parent="1" source="Z4CZ9cn21txVCKvSHwS5-10" target="Z4CZ9cn21txVCKvSHwS5-16">
          <mxGeometry relative="1" as="geometry" />
        </mxCell>
        <mxCell id="Z4CZ9cn21txVCKvSHwS5-30" style="edgeStyle=orthogonalEdgeStyle;rounded=0;orthogonalLoop=1;jettySize=auto;html=1;exitX=0.5;exitY=1;exitDx=0;exitDy=0;entryX=0;entryY=0.5;entryDx=0;entryDy=0;entryPerimeter=0;fontSize=14;" edge="1" parent="1" source="Z4CZ9cn21txVCKvSHwS5-15" target="Z4CZ9cn21txVCKvSHwS5-18">
          <mxGeometry relative="1" as="geometry" />
        </mxCell>
        <mxCell id="Z4CZ9cn21txVCKvSHwS5-31" style="edgeStyle=orthogonalEdgeStyle;rounded=0;orthogonalLoop=1;jettySize=auto;html=1;exitX=0.5;exitY=1;exitDx=0;exitDy=0;entryX=0;entryY=0.5;entryDx=0;entryDy=0;entryPerimeter=0;fontSize=14;" edge="1" parent="1" source="Z4CZ9cn21txVCKvSHwS5-17" target="Z4CZ9cn21txVCKvSHwS5-21">
          <mxGeometry relative="1" as="geometry" />
        </mxCell>
        <mxCell id="Z4CZ9cn21txVCKvSHwS5-35" value="GPU计算" style="rounded=0;whiteSpace=wrap;html=1;fillColor=#008C00;strokeColor=#3A5431;fontColor=#ffffff;fontSize=14;" vertex="1" parent="1">
          <mxGeometry x="490" y="1064" width="100" height="22" as="geometry" />
        </mxCell>
        <mxCell id="Z4CZ9cn21txVCKvSHwS5-36" value="CPU计算" style="rounded=0;whiteSpace=wrap;html=1;fillColor=#fad9d5;strokeColor=#ae4132;fontSize=14;" vertex="1" parent="1">
          <mxGeometry x="490" y="1037" width="100" height="21" as="geometry" />
        </mxCell>
        <mxCell id="Z4CZ9cn21txVCKvSHwS5-37" value="过去低效&lt;span style=&quot;background-color: initial; font-size: 14px;&quot;&gt;模型服务&lt;/span&gt;" style="text;html=1;align=center;verticalAlign=middle;resizable=0;points=[];autosize=1;strokeColor=none;fillColor=none;strokeWidth=1;fontSize=14;" vertex="1" parent="1">
          <mxGeometry x="214" y="792" width="130" height="29" as="geometry" />
        </mxCell>
        <mxCell id="Z4CZ9cn21txVCKvSHwS5-39" value="Triton&lt;span style=&quot;background-color: initial; font-size: 14px;&quot;&gt;异步流水线/batch处理&lt;/span&gt;" style="text;html=1;align=center;verticalAlign=middle;resizable=0;points=[];autosize=1;strokeColor=none;fillColor=none;fontSize=14;" vertex="1" parent="1">
          <mxGeometry x="208" y="1028" width="189" height="29" as="geometry" />
        </mxCell>
      </root>
    </mxGraphModel>
  </diagram>
  <diagram id="deo-n3IqnY3Rv580bpkU" name="第 2 页">
    <mxGraphModel dx="1374" dy="761" grid="0" gridSize="10" guides="1" tooltips="1" connect="1" arrows="1" fold="1" page="1" pageScale="1" pageWidth="827" pageHeight="1169" math="0" shadow="0">
      <root>
        <mxCell id="0" />
        <mxCell id="1" parent="0" />
        <mxCell id="Z1HlpdLY-S9guGsakgvZ-20" value="&lt;div&gt;&lt;br&gt;&lt;/div&gt;" style="rounded=0;whiteSpace=wrap;html=1;fontSize=14;dashed=1;" vertex="1" parent="1">
          <mxGeometry x="208" y="323" width="588" height="370" as="geometry" />
        </mxCell>
        <mxCell id="Z1HlpdLY-S9guGsakgvZ-18" value="&lt;div&gt;&lt;br&gt;&lt;/div&gt;" style="rounded=0;whiteSpace=wrap;html=1;fontSize=14;dashed=1;" vertex="1" parent="1">
          <mxGeometry x="346" y="363" width="230" height="310" as="geometry" />
        </mxCell>
        <mxCell id="Z1HlpdLY-S9guGsakgvZ-1" value="Req1" style="rounded=0;whiteSpace=wrap;html=1;fillColor=#eeeeee;strokeColor=#36393d;fontSize=14;" vertex="1" parent="1">
          <mxGeometry x="122" y="493" width="52" height="21" as="geometry" />
        </mxCell>
        <mxCell id="Z1HlpdLY-S9guGsakgvZ-2" value="RPC" style="rounded=0;whiteSpace=wrap;html=1;fontSize=14;" vertex="1" parent="1">
          <mxGeometry x="216" y="453" width="70" height="50" as="geometry" />
        </mxCell>
        <mxCell id="Z1HlpdLY-S9guGsakgvZ-31" value="GPU tensor" style="edgeStyle=orthogonalEdgeStyle;rounded=0;orthogonalLoop=1;jettySize=auto;html=1;exitX=0.5;exitY=1;exitDx=0;exitDy=0;entryX=0.5;entryY=0;entryDx=0;entryDy=0;" edge="1" parent="1" source="Z1HlpdLY-S9guGsakgvZ-3" target="Z1HlpdLY-S9guGsakgvZ-5">
          <mxGeometry relative="1" as="geometry" />
        </mxCell>
        <mxCell id="Z1HlpdLY-S9guGsakgvZ-3" value="PreProcess&lt;div&gt;&lt;font style=&quot;font-size: 12px;&quot;&gt;decode，resize，norm... by Dali/GPU&lt;/font&gt;&lt;/div&gt;" style="rounded=0;whiteSpace=wrap;html=1;fontSize=14;fillColor=#d5e8d4;strokeColor=#82b366;" vertex="1" parent="1">
          <mxGeometry x="376" y="403" width="160" height="60" as="geometry" />
        </mxCell>
        <mxCell id="Z1HlpdLY-S9guGsakgvZ-4" value="REST API" style="rounded=0;whiteSpace=wrap;html=1;fontSize=14;" vertex="1" parent="1">
          <mxGeometry x="216" y="514" width="70" height="50" as="geometry" />
        </mxCell>
        <mxCell id="Z1HlpdLY-S9guGsakgvZ-13" style="edgeStyle=orthogonalEdgeStyle;rounded=0;orthogonalLoop=1;jettySize=auto;html=1;exitX=1;exitY=0.5;exitDx=0;exitDy=0;entryX=0;entryY=0.5;entryDx=0;entryDy=0;" edge="1" parent="1" source="Z1HlpdLY-S9guGsakgvZ-5" target="Z1HlpdLY-S9guGsakgvZ-7">
          <mxGeometry relative="1" as="geometry" />
        </mxCell>
        <mxCell id="Z1HlpdLY-S9guGsakgvZ-14" style="edgeStyle=orthogonalEdgeStyle;rounded=0;orthogonalLoop=1;jettySize=auto;html=1;exitX=1;exitY=0.5;exitDx=0;exitDy=0;" edge="1" parent="1" source="Z1HlpdLY-S9guGsakgvZ-5" target="Z1HlpdLY-S9guGsakgvZ-9">
          <mxGeometry relative="1" as="geometry" />
        </mxCell>
        <mxCell id="Z1HlpdLY-S9guGsakgvZ-15" style="edgeStyle=orthogonalEdgeStyle;rounded=0;orthogonalLoop=1;jettySize=auto;html=1;exitX=1;exitY=0.5;exitDx=0;exitDy=0;entryX=0;entryY=0.5;entryDx=0;entryDy=0;" edge="1" parent="1" source="Z1HlpdLY-S9guGsakgvZ-5" target="Z1HlpdLY-S9guGsakgvZ-10">
          <mxGeometry relative="1" as="geometry" />
        </mxCell>
        <mxCell id="Z1HlpdLY-S9guGsakgvZ-16" style="edgeStyle=orthogonalEdgeStyle;rounded=0;orthogonalLoop=1;jettySize=auto;html=1;exitX=1;exitY=0.5;exitDx=0;exitDy=0;entryX=0;entryY=0.5;entryDx=0;entryDy=0;" edge="1" parent="1" source="Z1HlpdLY-S9guGsakgvZ-5" target="Z1HlpdLY-S9guGsakgvZ-11">
          <mxGeometry relative="1" as="geometry" />
        </mxCell>
        <mxCell id="Z1HlpdLY-S9guGsakgvZ-17" value="Batched&lt;div&gt;Queue&lt;/div&gt;" style="edgeLabel;html=1;align=center;verticalAlign=middle;resizable=0;points=[];fontSize=10;" vertex="1" connectable="0" parent="Z1HlpdLY-S9guGsakgvZ-16">
          <mxGeometry x="-0.7091" y="1" relative="1" as="geometry">
            <mxPoint x="61" y="-89" as="offset" />
          </mxGeometry>
        </mxCell>
        <mxCell id="Z1HlpdLY-S9guGsakgvZ-32" style="edgeStyle=orthogonalEdgeStyle;rounded=0;orthogonalLoop=1;jettySize=auto;html=1;exitX=0.5;exitY=1;exitDx=0;exitDy=0;" edge="1" parent="1" source="Z1HlpdLY-S9guGsakgvZ-5" target="Z1HlpdLY-S9guGsakgvZ-6">
          <mxGeometry relative="1" as="geometry" />
        </mxCell>
        <mxCell id="Z1HlpdLY-S9guGsakgvZ-33" value="GPU tensor" style="edgeLabel;html=1;align=center;verticalAlign=middle;resizable=0;points=[];" vertex="1" connectable="0" parent="Z1HlpdLY-S9guGsakgvZ-32">
          <mxGeometry x="0.32" relative="1" as="geometry">
            <mxPoint as="offset" />
          </mxGeometry>
        </mxCell>
        <mxCell id="Z1HlpdLY-S9guGsakgvZ-5" value="Inference&lt;div&gt;&lt;font style=&quot;font-size: 12px;&quot;&gt;multi models/backends&lt;/font&gt;&lt;/div&gt;" style="rounded=0;whiteSpace=wrap;html=1;fillColor=#6d8764;strokeColor=#3A5431;fontSize=14;fontColor=#ffffff;" vertex="1" parent="1">
          <mxGeometry x="376" y="493" width="160" height="60" as="geometry" />
        </mxCell>
        <mxCell id="Z1HlpdLY-S9guGsakgvZ-6" value="PostProcess&lt;div&gt;&lt;font style=&quot;font-size: 12px;&quot;&gt;analysis, merge results..&lt;/font&gt;&lt;/div&gt;" style="rounded=0;whiteSpace=wrap;html=1;fontSize=14;fillColor=#d5e8d4;strokeColor=#82b366;" vertex="1" parent="1">
          <mxGeometry x="376" y="583" width="160" height="60" as="geometry" />
        </mxCell>
        <mxCell id="Z1HlpdLY-S9guGsakgvZ-7" value="Model A&lt;div&gt;pytorch&lt;/div&gt;" style="rounded=0;whiteSpace=wrap;html=1;fillColor=#6d8764;strokeColor=#3A5431;fontSize=14;fontColor=#ffffff;" vertex="1" parent="1">
          <mxGeometry x="666" y="413" width="100" height="40" as="geometry" />
        </mxCell>
        <mxCell id="Z1HlpdLY-S9guGsakgvZ-9" value="Model B&lt;div&gt;tensorrt&lt;/div&gt;" style="rounded=0;whiteSpace=wrap;html=1;fillColor=#6d8764;strokeColor=#3A5431;fontSize=14;fontColor=#ffffff;" vertex="1" parent="1">
          <mxGeometry x="666" y="473" width="100" height="40" as="geometry" />
        </mxCell>
        <mxCell id="Z1HlpdLY-S9guGsakgvZ-10" value="..." style="rounded=0;whiteSpace=wrap;html=1;fillColor=#6d8764;strokeColor=#3A5431;fontSize=14;fontColor=#ffffff;" vertex="1" parent="1">
          <mxGeometry x="666" y="533" width="100" height="40" as="geometry" />
        </mxCell>
        <mxCell id="Z1HlpdLY-S9guGsakgvZ-11" value="Model N&lt;div&gt;onnx&lt;/div&gt;" style="rounded=0;whiteSpace=wrap;html=1;fillColor=#6d8764;strokeColor=#3A5431;fontSize=14;fontColor=#ffffff;" vertex="1" parent="1">
          <mxGeometry x="666" y="593" width="100" height="40" as="geometry" />
        </mxCell>
        <mxCell id="Z1HlpdLY-S9guGsakgvZ-19" value="Model BLS/Ensemble" style="text;html=1;align=center;verticalAlign=middle;resizable=0;points=[];autosize=1;strokeColor=none;fillColor=none;" vertex="1" parent="1">
          <mxGeometry x="386" y="363" width="140" height="30" as="geometry" />
        </mxCell>
        <mxCell id="Z1HlpdLY-S9guGsakgvZ-21" value="Triton Server" style="text;html=1;align=center;verticalAlign=middle;resizable=0;points=[];autosize=1;strokeColor=none;fillColor=none;" vertex="1" parent="1">
          <mxGeometry x="205.5" y="323" width="90" height="30" as="geometry" />
        </mxCell>
        <mxCell id="Z1HlpdLY-S9guGsakgvZ-22" value="" style="shape=flexArrow;endArrow=classic;startArrow=classic;html=1;rounded=0;startWidth=11;startSize=4;endWidth=11;endSize=5.67;" edge="1" parent="1">
          <mxGeometry width="100" height="100" relative="1" as="geometry">
            <mxPoint x="286" y="507.5" as="sourcePoint" />
            <mxPoint x="346" y="507.5" as="targetPoint" />
          </mxGeometry>
        </mxCell>
        <mxCell id="Z1HlpdLY-S9guGsakgvZ-24" value="Batched&lt;div&gt;Queue&lt;/div&gt;" style="edgeLabel;html=1;align=center;verticalAlign=middle;resizable=0;points=[];fontSize=10;" vertex="1" connectable="0" parent="1">
          <mxGeometry x="626" y="493" as="geometry" />
        </mxCell>
        <mxCell id="Z1HlpdLY-S9guGsakgvZ-25" value="Batched&lt;div&gt;Queue&lt;/div&gt;" style="edgeLabel;html=1;align=center;verticalAlign=middle;resizable=0;points=[];fontSize=10;" vertex="1" connectable="0" parent="1">
          <mxGeometry x="626" y="613" as="geometry" />
        </mxCell>
        <mxCell id="Z1HlpdLY-S9guGsakgvZ-26" value="Req2" style="rounded=0;whiteSpace=wrap;html=1;fillColor=#eeeeee;strokeColor=#36393d;fontSize=14;" vertex="1" parent="1">
          <mxGeometry x="122" y="513" width="52" height="21" as="geometry" />
        </mxCell>
        <mxCell id="Z1HlpdLY-S9guGsakgvZ-27" value="Req3" style="rounded=0;whiteSpace=wrap;html=1;fillColor=#eeeeee;strokeColor=#36393d;fontSize=14;" vertex="1" parent="1">
          <mxGeometry x="122" y="533" width="52" height="21" as="geometry" />
        </mxCell>
        <mxCell id="Z1HlpdLY-S9guGsakgvZ-28" style="edgeStyle=orthogonalEdgeStyle;rounded=0;orthogonalLoop=1;jettySize=auto;html=1;exitX=1;exitY=0.5;exitDx=0;exitDy=0;entryX=0.003;entryY=0.541;entryDx=0;entryDy=0;entryPerimeter=0;" edge="1" parent="1" source="Z1HlpdLY-S9guGsakgvZ-26" target="Z1HlpdLY-S9guGsakgvZ-20">
          <mxGeometry relative="1" as="geometry" />
        </mxCell>
      </root>
    </mxGraphModel>
  </diagram>
</mxfile>
